<svg width="65" height="58" viewBox="0 0 65 58" fill="none" xmlns="http://www.w3.org/2000/svg">
<path d="M59.7498 5.38462C56.3461 1.93007 51.8401 0.0419582 47.0309 0.0419582C42.2217 0.0419582 37.7019 1.94406 34.2983 5.3986L32.5207 7.2028L30.7155 5.37063C27.3119 1.91608 22.7783 0 17.9691 0C13.1737 0 8.65386 1.9021 5.264 5.34266C1.86036 8.7972 -0.0137045 13.3846 7.54549e-05 18.2657C7.54549e-05 23.1469 1.88792 27.7203 5.29156 31.1748L31.1702 57.4406C31.5285 57.8042 32.0108 58 32.4793 58C32.9478 58 33.4301 57.8182 33.7884 57.4545L59.7222 31.2308C63.1259 27.7762 64.9999 23.1888 64.9999 18.3077C65.0137 13.4266 63.1534 8.83916 59.7498 5.38462Z" fill="#FE4543"/>
</svg>
