<svg width="101" height="78" viewBox="0 0 101 78" fill="none" xmlns="http://www.w3.org/2000/svg">
<path d="M78.4473 0.000828313C78.1959 -0.00138041 77.9439 0.000828044 77.6922 0.00745421C74.0347 0.101988 70.3526 1.09525 66.9778 3.07913C34.3598 22.2515 44.652 16.0488 11.3245 35.4093L10.3025 36.003V36.0719C0.290575 42.6305 -3.01812 56.0487 3.02459 66.5799C9.27275 77.4689 23.2139 81.2664 34.0169 74.9245C67.2487 55.417 56.9258 61.5816 89.663 42.5945C100.491 36.3151 104.218 22.3131 97.9699 11.4241C93.8087 4.172 86.2327 0.0620084 78.4473 0.000605877V0.000828313ZM78.7419 3.63815C84.2856 3.72783 89.6476 6.62258 92.5917 11.776C92.9912 12.4748 93.2033 13.304 93.4904 14.0333C88.4691 8.32153 79.9114 6.73567 73.0824 10.7202C58.918 18.9852 54.7225 21.5129 49.8832 24.3865C54.8134 28.6681 59.6119 35.9001 61.7917 42.5046C49.341 49.7483 50.4539 49.2788 29.1187 61.7276C22.2898 65.7121 13.7323 64.1258 8.7108 58.4145C8.99836 59.1434 9.21063 59.9728 9.6097 60.6718C14.0961 68.5243 24.1956 71.1204 31.9998 66.5662C52.4238 54.6488 52.1571 54.6822 62.9922 48.3856C63.1035 50.5073 62.7683 52.401 61.874 53.8937C55.5538 57.5363 50.1732 60.6628 31.9447 71.3631C23.0787 76.5682 11.7159 73.4714 6.57737 64.5161C1.43906 55.5615 4.47577 44.1548 13.3756 38.985L14.4045 38.3842C30.4694 29.0559 36.0533 25.8679 42.0212 22.4262C50.1589 17.6775 51.7135 16.6692 70.2011 5.88178C72.884 4.31623 75.8377 3.59133 78.7414 3.63837L78.7419 3.63815Z" fill="#72785C"/>
</svg>
