<svg width="40" height="49" viewBox="0 0 40 49" fill="none" xmlns="http://www.w3.org/2000/svg">
<g clip-path="url(#clip0_10_24)">
<path fill-rule="evenodd" clip-rule="evenodd" d="M20.5137 2.29222C22.5362 3.24487 23.9819 4.74608 24.8159 6.75953C25.1974 7.68067 25.5031 9.09479 25.5049 9.9469L25.5062 10.5669L25.0347 10.3636C23.1823 9.56483 19.8636 9.4589 16.3755 10.0872C15.2996 10.2809 13.2585 10.7691 12.8771 10.9239C12.7207 10.9873 12.7035 10.9183 12.7035 10.2313C12.7035 6.73669 15.0611 3.49027 18.5444 2.18857C18.9618 2.03266 19.3861 1.90277 19.4872 1.90018C19.5883 1.89749 20.0502 2.07395 20.5137 2.29222ZM14.3774 3.76569C12.6341 5.60138 11.8294 7.44185 11.6503 10.0033C11.6143 10.5174 11.6172 11.2409 11.6566 11.6112C11.7175 12.1826 11.7533 12.2748 11.8933 12.2204C12.2678 12.0751 14.2697 11.4848 14.5986 11.4229L14.9536 11.3559L15.0554 12.7356C15.2179 14.9384 15.0444 15.7843 14.3195 16.3231C13.5056 16.9279 12.2112 17.3573 11.2018 17.3573H10.5431L10.8045 16.7338C11.032 16.1913 11.0655 15.9743 11.0627 15.0629C11.06 14.1363 11.0272 13.9407 10.7788 13.3671C9.69472 10.8644 9.56401 10.3218 9.66068 8.72849C9.72757 7.6271 9.87743 6.97121 10.2454 6.16869C10.8448 4.862 12.4359 3.67023 14.2914 3.13844C15.1466 2.89334 15.154 2.948 14.3774 3.76569ZM22.8918 10.7266C23.1988 10.8202 23.2288 11.039 23.174 12.7829C23.0936 15.3417 22.6953 16.7994 22.0047 17.0626C21.8287 17.1296 20.905 17.2137 19.9484 17.2496L18.2116 17.315L18.7579 17.5734C19.4813 17.9157 20.6288 18.2329 21.4867 18.3279L22.1814 18.4047L22.212 18.8295C22.2718 19.6616 21.4341 20.7422 20.2948 21.3025C19.5067 21.69 18.8013 21.8439 17.8146 21.8435C16.3254 21.843 15.2857 21.5093 14.4702 20.7696C13.9042 20.2562 13.7952 19.9327 13.7952 18.7684V17.779L14.4797 17.3702C16.0269 16.4464 16.3408 15.4833 16.092 12.4236C16.0341 11.7126 15.9997 11.118 16.0154 11.1022C16.0525 11.0649 18.4738 10.6963 19.0552 10.6393C19.6705 10.579 22.6288 10.6464 22.8918 10.7266ZM24.9704 14.4434C25.3774 15.3132 26.0024 16.9618 26.0024 17.1657C26.0024 17.217 25.4144 17.2575 24.668 17.2575H23.3338L23.5801 16.7167C23.871 16.078 24.0734 15.1359 24.1701 13.9712C24.2535 12.9671 24.2895 12.9882 24.9704 14.4434ZM24.6444 19.4467C24.818 19.6142 24.8039 19.6501 24.2692 20.3992C23.9636 20.8273 23.6422 21.299 23.5551 21.4472C23.4125 21.6898 22.8558 21.8974 17.9755 23.5272C14.9938 24.523 12.5181 25.3377 12.4738 25.3377C12.3307 25.3377 11.8437 24.1178 11.5768 23.0909C11.2361 21.7796 11.0447 19.9314 11.2365 19.8059C11.2518 19.7958 11.5833 19.6718 11.973 19.5302L12.6816 19.2728L12.7947 19.8505C13.0947 21.3834 14.6506 22.4658 16.9592 22.7479C19.9578 23.1144 22.9348 21.4053 23.2755 19.1219L23.3462 18.6483L23.9051 18.9605C24.2126 19.1323 24.5453 19.3511 24.6444 19.4467ZM27.9377 19.8402C28.5927 20.1628 29.2132 20.4921 29.3164 20.572C29.4954 20.7103 29.4861 20.7304 29.1179 21.0007C28.9055 21.1566 28.4349 21.5731 28.0723 21.9261L27.4129 22.5681L26.015 22.0998L24.6171 21.6316L25.3574 20.6665C26.4384 19.2575 26.4359 19.2604 26.5979 19.2568C26.6797 19.255 27.2827 19.5176 27.9377 19.8402ZM10.0687 20.2751C10.2057 22.071 10.7134 24.2501 11.2333 25.2745C11.3411 25.4869 11.3922 25.6911 11.3469 25.7283C11.3015 25.7655 10.8685 25.9217 10.3846 26.0754L9.50486 26.3551L9.55717 26.6693C9.70107 27.5335 10.8611 34.3566 11.2133 36.4104C11.4344 37.6998 11.6441 38.9542 11.6792 39.1981L11.7433 39.6414L11.355 39.4127C11.1414 39.2871 10.6196 38.9774 10.1954 38.7246C8.24008 37.5598 6.01906 35.5526 5.05101 34.0758C4.72926 33.5849 4.46606 33.1348 4.46606 33.0754C4.46606 33.0162 4.59111 32.9121 4.74385 32.8441C5.20335 32.6397 6.31491 31.6622 6.84299 30.9983C7.51032 30.1593 8.10173 29.002 8.34478 28.0597C8.74802 26.4961 8.69144 22.8776 8.23382 20.956C8.12376 20.4939 8.06838 20.0816 8.11076 20.0398C8.22827 19.9239 9.65462 19.3583 9.83734 19.3552C9.96933 19.3529 10.0109 19.5182 10.0687 20.2751ZM7.02412 20.4746C7.37068 21.4897 7.45673 22.1799 7.51509 24.4132C7.58198 26.9721 7.48531 27.7397 6.95256 28.8789C5.96159 30.9982 4.22926 32.4321 2.30141 32.7287C1.855 32.7974 1.46536 32.8291 1.43559 32.7991C1.40572 32.7692 1.46973 32.5931 1.57771 32.4079C2.01042 31.6656 2.05081 30.7807 1.78493 27.8651C1.6451 26.3319 1.76072 25.1887 2.16961 24.0626C2.58029 22.9315 3.2367 21.9735 4.04268 21.3289C4.64798 20.8448 6.4341 19.8511 6.69909 19.8511C6.76082 19.8511 6.90701 20.1318 7.02412 20.4746ZM32.4261 21.5017C32.8514 21.9486 33.1707 22.4128 33.4379 22.9731C33.8035 23.7396 34.0989 24.6147 34.0191 24.695C33.9996 24.7145 32.9975 24.4018 31.7922 23.9999C30.5867 23.5981 29.3413 23.1874 29.0245 23.0873L28.4486 22.9051L29.1087 22.2887C29.8017 21.6416 31.1392 20.8571 31.5583 20.8518C31.7342 20.8496 31.982 21.0351 32.4261 21.5017Z" fill="white"/>
<path d="M11.2755 29.0877L13.3889 41.8486C13.4492 42.2127 13.6051 42.5558 13.8632 42.8197C16.5497 45.567 21.5775 47.6057 23.9018 48.3224C23.9358 48.3329 23.9697 48.3377 24.0053 48.3377C24.0355 48.3377 24.0649 48.3341 24.0941 48.3265C27.1762 47.5197 31.72 44.7988 33.981 42.8507C34.3077 42.5692 34.5093 42.1755 34.5791 41.7499L36.6745 28.97C36.8345 27.9943 36.2576 27.0482 35.3169 26.7436L24.391 23.2065C23.9771 23.0725 23.5307 23.0772 23.1196 23.2198L12.5932 26.8714C11.6728 27.1906 11.1164 28.1266 11.2755 29.0877Z" fill="white"/>
<path d="M26.8459 27.5687H30.5677L28.1858 30.6354H24.5137L26.8459 27.5687Z" fill="#3E3E3E"/>
<path d="M18.0131 27.7195H22.0325L19.8491 34.1042H28.7316L28.7812 34.1545C29.4958 34.5969 29.8398 35.1432 29.9225 35.3611V41.9971C29.9225 42.5602 29.1286 43.3378 28.7316 43.6562H22.628L19.4025 43.5556C18.6482 43.5556 18.1619 42.8518 18.0131 42.4999V38.9305H19.8987L20.7919 37.0704L20.7423 37.0201H19.4521C18.8963 36.9397 18.2612 36.1822 18.0131 35.8135V27.7195Z" fill="#3E3E3E"/>
<path d="M19.8987 38.9305L20.7919 37.0704H28.4835L22.628 43.6234L19.8987 46.6726L18.3108 45.8682L21.6851 38.9305H19.8987Z" fill="#FE4543"/>
<path d="M22.0325 27.7196L23.5708 23.0944L23.8686 22.9436L31.4609 25.407L29.7241 27.5687H26.8459L24.5137 30.6354H27.1437L25.8039 32.2441H30.4684L28.7316 34.1043H19.8491L22.0325 27.7196Z" fill="#FE4543"/>
<path d="M26.2008 40.4387V39.6343L25.2084 40.6901C25.3242 40.7068 25.5756 40.7806 25.8535 40.7403C26.1314 40.7001 26.2174 40.5057 26.2008 40.4387Z" fill="#D6D3CE"/>
</g>
<defs>
<clipPath id="clip0_10_24">
<rect width="40" height="49" rx="20" fill="white"/>
</clipPath>
</defs>
</svg>
