<svg width="101" height="61" viewBox="0 0 101 61" fill="none" xmlns="http://www.w3.org/2000/svg">
<path fill-rule="evenodd" clip-rule="evenodd" d="M0 36.6532C0 49.6425 10.5299 60.1724 23.5192 60.1724C32.6888 60.1724 36.9716 57.8175 40.7158 55.7587C43.6233 54.16 46.206 52.7399 50.5 52.7399V52.7401C54.794 52.7401 57.3767 54.1602 60.2842 55.7589C64.0284 57.8176 68.3112 60.1725 77.4809 60.1725C90.4701 60.1725 101 49.6426 101 36.6534C101 23.6641 90.4701 13.1342 77.4809 13.1342C71.3021 13.1342 68.4674 10.1623 65.4949 7.0459C62.2184 3.61083 58.7744 0.000143741 50.5 0.000143741V0C42.2256 0 38.7816 3.61068 35.5051 7.04575C32.5326 10.1622 29.6979 13.1341 23.5192 13.1341C10.5299 13.1341 0 23.664 0 36.6532ZM23.5192 53.9618C33.0221 53.9618 40.7258 46.2581 40.7258 36.7551C40.7258 27.2521 33.0221 19.5484 23.5192 19.5484C14.0162 19.5484 6.3125 27.2521 6.3125 36.7551C6.3125 46.2581 14.0162 53.9618 23.5192 53.9618ZM94.6875 36.7551C94.6875 46.2581 86.9838 53.9618 77.4809 53.9618C67.9779 53.9618 60.2742 46.2581 60.2742 36.7551C60.2742 27.2521 67.9779 19.5484 77.4809 19.5484C86.9838 19.5484 94.6875 27.2521 94.6875 36.7551ZM50.5 16.494C53.3115 16.494 55.5907 14.2148 55.5907 11.4032C55.5907 8.5917 53.3115 6.3125 50.5 6.3125C47.6885 6.3125 45.4093 8.5917 45.4093 11.4032C45.4093 14.2148 47.6885 16.494 50.5 16.494Z" fill="#72785C"/>
</svg>
