<svg width="58" height="71" viewBox="0 0 58 71" fill="none" xmlns="http://www.w3.org/2000/svg">
<path d="M43.3916 0.000151341L37.7557 12.9649L43.8347 15.556L49.4708 2.59123L43.3915 0L43.3916 0.000151341ZM14.6416 0.0518398L8.51883 2.53954L13.9301 15.5977L20.0529 13.11L14.6418 0.0518398H14.6416ZM19.3577 1.01155L18.1163 1.52572L22.5075 12.1254L23.5149 14.5577L21.0606 15.5486L14.9382 18.0363L12.4819 19.0338L11.4745 16.602L7.11477 6.08444L5.42056 6.78632C8.06497 10.2865 9.25267 14.6578 8.73888 18.9993C8.2251 23.3408 6.04898 27.3218 2.65899 30.1217V35.6337H16.9316V47.4296H2.65884V49.5855H16.9314V61.398H2.65884V67.1923C5.22305 69.7314 17.1123 71 29.0018 71C40.8912 71 52.7806 69.7314 55.3448 67.1923V61.398H41.0719V49.5875H55.3448V47.4293H41.0674V35.6184H55.3396V30.108C51.9496 27.308 49.7735 23.3271 49.2597 18.9855C48.746 14.644 49.9337 10.2727 52.5781 6.77256L50.8472 6.05467L46.2683 16.5867L45.2177 19.0028L42.7781 17.9625L36.7073 15.3842L34.2676 14.3439L35.3182 11.928L39.8487 1.50411L38.6442 1.0114C37.6888 2.7143 36.2909 4.13323 34.5953 5.12113C32.8997 6.10904 30.9682 6.62999 29.0009 6.62999C27.0336 6.62999 25.1021 6.10904 23.4065 5.12113C21.711 4.13323 20.313 2.71445 19.3577 1.01155ZM0 38.248V44.8018H14.2776V38.248H0ZM43.7224 38.248V44.8018H58V38.248H43.7224ZM0 52.2165V58.7704H14.2776V52.2163H0V52.2165ZM43.7224 52.2165V58.7704H58V52.2163H43.7224V52.2165Z" fill="#72785C"/>
</svg>
