<svg width="102" height="71" viewBox="0 0 102 71" fill="none" xmlns="http://www.w3.org/2000/svg">
<path d="M47.2496 7.25558L42.0062 3.05096L66.0097 0L66.6163 4.79386L47.2496 7.25558ZM34.121 2.93039H20.2496L16.3071 12.7202H46.3094L34.121 2.93039ZM94.9297 57.1837C94.9297 54.4511 94.1161 51.7799 92.5919 49.5078C91.0677 47.2358 88.9013 45.4649 86.3666 44.4192C83.832 43.3734 81.0429 43.0998 78.3521 43.6329C75.6613 44.166 73.1897 45.4818 71.2497 47.4141C69.3097 49.3463 67.9886 51.8081 67.4533 54.4882C66.9181 57.1682 67.1927 59.9462 68.2426 62.4708C69.2924 64.9954 71.0704 67.1532 73.3515 68.6714C75.6326 70.1896 78.3145 71 81.058 71C84.7369 71 88.2652 69.5444 90.8666 66.9533C93.468 64.3623 94.9294 60.848 94.9294 57.1837H94.9297ZM33.3658 57.1837C33.3658 54.4511 32.5523 51.7799 31.0281 49.5078C29.5039 47.2357 27.3374 45.4649 24.8028 44.4191C22.2681 43.3734 19.479 43.0998 16.7882 43.6329C14.0974 44.166 11.6257 45.4819 9.68579 47.4141C7.74583 49.3464 6.4247 51.8082 5.88947 54.4883C5.35424 57.1684 5.62894 59.9464 6.67884 62.471C7.72873 64.9956 9.50667 67.1534 11.7878 68.6715C14.069 70.1897 16.7509 71 19.4944 71C23.1733 71 26.7016 69.5444 29.303 66.9533C31.9044 64.3623 33.3658 60.848 33.3658 57.1837ZM101.429 55.5403C101.429 56.2272 101.271 56.905 100.969 57.5222C100.666 58.1394 100.226 58.6796 99.6818 59.1017C99.9559 56.4638 99.6619 53.7981 98.8196 51.2823C97.9773 48.7666 96.6061 46.4587 94.7973 44.5127C92.9885 42.5666 90.7838 41.0272 88.3304 39.9971C85.8769 38.967 83.2311 38.4699 80.5695 38.539C77.9079 38.6081 75.2916 39.2418 72.8954 40.3978C70.4991 41.5538 68.378 43.2055 66.6734 45.2427C64.9689 47.28 63.7202 49.6559 63.0106 52.2119C62.301 54.7679 62.1469 57.4453 62.5585 60.0653H37.9939C38.391 57.5313 38.259 54.9429 37.6062 52.4619C36.9533 49.981 35.7937 47.6608 34.1996 45.6466C32.6056 43.6323 30.6115 41.9673 28.3421 40.7555C26.0726 39.5437 23.5766 38.8113 21.01 38.604C18.4435 38.3967 15.8615 38.7191 13.4257 39.5508C10.9899 40.3826 8.75256 41.7059 6.85355 43.4381C4.95455 45.1702 3.43472 47.274 2.38911 49.6177C1.34349 51.9615 0.794558 54.4949 0.776636 57.0596C0.147896 55.9612 -0.109453 54.6904 0.0426023 53.435L3.73659 21.9932C3.88006 20.7676 4.47056 19.6373 5.39586 18.817C6.32116 17.9967 7.51679 17.5435 8.75553 17.5437H62.0946C62.5953 17.5439 63.0894 17.6574 63.5397 17.8756C63.9899 18.0938 64.3845 18.4111 64.6936 18.8034L74.3981 31.1217L97.6347 36.16L101.429 55.5403ZM68.7543 31.8225L60.8481 20.6974H40.2835V31.8284H68.7574L68.7543 31.8225Z" fill="#72785C"/>
</svg>
