<svg width="42" height="34" viewBox="0 0 42 34" fill="none" xmlns="http://www.w3.org/2000/svg">
<path d="M37.667 0.333496H4.33366C2.04199 0.333496 0.166992 2.2085 0.166992 4.50016V29.5002C0.166992 31.7918 2.04199 33.6668 4.33366 33.6668H37.667C39.9587 33.6668 41.8337 31.7918 41.8337 29.5002V4.50016C41.8337 2.2085 39.9587 0.333496 37.667 0.333496ZM36.8337 9.18766L23.2087 17.7085C21.8545 18.5627 20.1462 18.5627 18.792 17.7085L5.16699 9.18766C4.95809 9.07039 4.77516 8.91196 4.62926 8.72194C4.48336 8.53193 4.37754 8.31428 4.31819 8.08219C4.25884 7.85009 4.24721 7.60836 4.28398 7.37164C4.32076 7.13491 4.40519 6.90811 4.53216 6.70496C4.65913 6.50181 4.826 6.32653 5.02267 6.18974C5.21934 6.05294 5.44172 5.95748 5.67636 5.90912C5.91099 5.86076 6.153 5.86051 6.38773 5.90839C6.62246 5.95627 6.84504 6.05127 7.04199 6.18766L21.0003 14.9168L34.9587 6.18766C35.1556 6.05127 35.3782 5.95627 35.6129 5.90839C35.8477 5.86051 36.0897 5.86076 36.3243 5.90912C36.5589 5.95748 36.7813 6.05294 36.978 6.18974C37.1746 6.32653 37.3415 6.50181 37.4685 6.70496C37.5955 6.90811 37.6799 7.13491 37.7167 7.37164C37.7534 7.60836 37.7418 7.85009 37.6825 8.08219C37.6231 8.31428 37.5173 8.53193 37.3714 8.72194C37.2255 8.91196 37.0426 9.07039 36.8337 9.18766Z" fill="#F0624E"/>
</svg>
