<svg width="90" height="117" viewBox="0 0 90 117" fill="none" xmlns="http://www.w3.org/2000/svg">
<path d="M24.6471 65.9577L30.5226 101.477C30.5828 101.841 30.7394 102.181 30.9877 102.453C37.5752 109.688 50.8109 115.079 56.8332 116.938C56.9188 116.965 57.004 116.977 57.0936 116.977C57.1697 116.977 57.2436 116.968 57.3172 116.948C65.4303 114.822 77.5688 107.418 82.9439 102.488C83.2615 102.196 83.4647 101.804 83.5344 101.378L89.392 65.611C89.5517 64.6357 88.9751 63.6899 88.0349 63.3852L57.0977 53.3578C56.6833 53.2234 56.2364 53.2281 55.8249 53.371L25.9641 63.742C25.0443 64.0615 24.4882 64.997 24.6471 65.9577Z" fill="#5B604A"/>
<path fill-rule="evenodd" clip-rule="evenodd" d="M48.3084 0.98762C53.3971 3.38738 57.0346 7.16894 59.1328 12.2408C60.0927 14.5612 60.8618 18.1234 60.8663 20.2698L60.8695 21.8316L59.6834 21.3195C55.0227 19.3074 46.6729 19.0406 37.8968 20.6232C35.1897 21.1111 30.0543 22.3409 29.0947 22.7309C28.7011 22.8907 28.6577 22.7168 28.6577 20.9863C28.6577 12.1833 34.5897 4.00553 43.3535 0.726537C44.4038 0.333781 45.4713 0.00661001 45.7257 7.6645e-05C45.9802 -0.00670801 47.1423 0.437812 48.3084 0.98762ZM32.8695 4.69933C28.4832 9.32344 26.4586 13.9596 26.0078 20.4118C25.9174 21.7069 25.9247 23.5295 26.0238 24.4623C26.1771 25.9016 26.267 26.1338 26.6194 25.9969C27.5615 25.6307 32.5985 24.1439 33.426 23.9878L34.319 23.8192L34.5752 27.2947C34.9842 32.8436 34.5475 34.9744 32.7236 36.3316C30.6758 37.8552 27.4192 38.9367 24.8794 38.9367H23.2221L23.8799 37.3662C24.4522 35.9997 24.5366 35.4529 24.5296 33.1572C24.5229 30.823 24.4402 30.3302 23.8152 28.8854C21.0877 22.5812 20.7588 21.2142 21.002 17.2007C21.1703 14.4263 21.5474 12.7741 22.4733 10.7525C23.9812 7.46093 27.9845 4.45885 32.653 3.11926C34.8047 2.50185 34.8234 2.63956 32.8695 4.69933ZM54.2918 22.2339C55.0642 22.4698 55.1396 23.0209 55.0017 27.4138C54.7995 33.8595 53.7974 37.5315 52.0597 38.1944C51.617 38.3633 49.293 38.5751 46.8861 38.6656L42.5163 38.8301L43.8909 39.4812C45.711 40.3434 48.5981 41.1425 50.7565 41.3817L52.5044 41.5752L52.5814 42.6451C52.7319 44.7413 50.6242 47.4632 47.7576 48.8747C45.7747 49.8509 44 50.2387 41.5175 50.2377C37.7707 50.2364 35.1548 49.3956 33.1029 47.5323C31.6789 46.2392 31.4044 45.4243 31.4044 42.4913V39.9991L33.1267 38.9694C37.0195 36.6422 37.8094 34.2161 37.1833 26.5087C37.0378 24.7176 36.9511 23.2199 36.9906 23.18C37.084 23.0862 43.176 22.1575 44.6388 22.014C46.1869 21.8622 53.6301 22.0318 54.2918 22.2339ZM59.5216 31.5967C60.5457 33.7876 62.1181 37.9406 62.1181 38.4542C62.1181 38.5834 60.6388 38.6854 58.7608 38.6854H55.4038L56.0235 37.3229C56.7554 35.7142 57.2648 33.3411 57.508 30.4071C57.7178 27.8777 57.8084 27.931 59.5216 31.5967ZM58.7014 44.2001C59.1381 44.622 59.1026 44.7124 57.7572 46.5993C56.9884 47.6778 56.1798 48.8659 55.9606 49.2393C55.6018 49.8504 54.2012 50.3733 41.9222 54.4788C34.4204 56.9871 28.1912 59.0394 28.0799 59.0394C27.7198 59.0394 26.4945 55.9664 25.8231 53.3797C24.9658 50.0766 24.4841 45.4211 24.9668 45.1047C25.0053 45.0793 25.8393 44.767 26.8199 44.4104L28.6028 43.7618L28.8872 45.2173C29.642 49.0785 33.5566 51.8052 39.3653 52.5158C46.9098 53.439 54.3999 49.1338 55.2572 43.3819L55.435 42.1888L56.8413 42.9753C57.6149 43.408 58.4519 43.9591 58.7014 44.2001ZM66.9873 45.1911C68.6353 46.0038 70.1965 46.8333 70.4562 47.0345C70.9066 47.3831 70.8832 47.4336 69.9568 48.1146C69.4224 48.5073 68.2383 49.5564 67.3259 50.4457L65.6669 52.0627L62.1498 50.8832L58.6327 49.7037L60.4952 47.2728C63.215 43.7234 63.2088 43.7307 63.6163 43.7216C63.8223 43.7171 65.3392 44.3785 66.9873 45.1911ZM22.0286 46.2867C22.3734 50.8106 23.6506 56.2999 24.9588 58.8803C25.23 59.4153 25.3586 59.9297 25.2445 60.0234C25.1304 60.1171 24.0409 60.5106 22.8234 60.8979L20.61 61.6022L20.7416 62.3937C21.1036 64.5706 24.0222 81.7581 24.9084 86.9318C25.4647 90.1796 25.9924 93.3395 26.0808 93.9539L26.2418 95.0706L25.265 94.4947C24.7276 94.1781 23.4147 93.3981 22.3474 92.7613C17.4278 89.8271 11.8396 84.771 9.40401 81.0508C8.59447 79.8142 7.93226 78.6804 7.93226 78.5309C7.93226 78.3816 8.24688 78.1196 8.63118 77.9482C9.78731 77.4333 12.584 74.971 13.9127 73.2987C15.5917 71.1851 17.0797 68.27 17.6912 65.8961C18.7057 61.9575 18.5634 52.8425 17.412 48.002C17.1351 46.8378 16.9958 45.7992 17.1024 45.6939C17.398 45.402 20.9868 43.9772 21.4465 43.9694C21.7786 43.9636 21.8832 44.38 22.0286 46.2867ZM14.3684 46.7893C15.2403 49.3464 15.4568 51.085 15.6037 56.7107C15.772 63.1566 15.5288 65.0903 14.1883 67.9599C11.695 73.2984 7.33646 76.9104 2.48596 77.6574C1.36279 77.8306 0.382451 77.9105 0.307539 77.8349C0.232379 77.7595 0.393438 77.316 0.665116 76.8493C1.75383 74.9795 1.85546 72.7504 1.1865 65.4061C0.834665 61.5439 1.12557 58.6642 2.15435 55.8275C3.18763 52.9782 4.83917 50.5651 6.86702 48.9413C8.38996 47.7218 12.8839 45.2188 13.5506 45.2188C13.7059 45.2188 14.0737 45.9256 14.3684 46.7893ZM78.2802 49.3765C79.3504 50.5023 80.1537 51.6717 80.8259 53.0829C81.7458 55.0138 82.4889 57.2183 82.2882 57.4206C82.2392 57.4696 79.718 56.6818 76.6853 55.6696C73.6524 54.6575 70.5189 53.6229 69.7218 53.3707L68.2728 52.9118L69.9335 51.3591C71.6772 49.7291 75.0425 47.7527 76.0967 47.7394C76.5395 47.7339 77.163 48.2013 78.2802 49.3765Z" fill="#5B604A"/>
<path d="M64.2406 64.6594H73.6045L67.6116 72.3844H58.3726L64.2406 64.6594Z" fill="#3E3E3E"/>
<path d="M42.0166 65.0393H52.1296L46.6361 81.1224H68.9846L69.1095 81.2491C70.9074 82.3635 71.773 83.7396 71.9811 84.2884V101.005C71.9811 102.423 69.9835 104.382 68.9846 105.184H53.6278L45.5125 104.931C43.6147 104.931 42.3912 103.158 42.0166 102.271V93.2798H46.761L49.0083 88.5941L48.8835 88.4675H45.6373C44.239 88.2649 42.6409 86.3568 42.0166 85.4282V65.0393Z" fill="#3E3E3E"/>
<path d="M46.7614 93.2798L49.0087 88.5941H68.3608L53.6282 105.101L46.7614 112.782L42.7661 110.756L51.2561 93.2798H46.7614Z" fill="#FE4543"/>
<path d="M52.1297 65.0394L56.0001 53.3886L56.7492 53.0087L75.8516 59.214L71.4818 64.6594H64.2404L58.3723 72.3844H64.9895L61.6185 76.4369H73.3546L68.9848 81.1225H46.6362L52.1297 65.0394Z" fill="#FE4543"/>
<path d="M62.6176 97.079V95.0527L60.1206 97.7121C60.4119 97.7544 61.0445 97.9401 61.7437 97.8388C62.4429 97.7375 62.6593 97.2478 62.6176 97.079Z" fill="#5B604A"/>
</svg>
