<svg width="126" height="83" viewBox="0 0 126 83" fill="none" xmlns="http://www.w3.org/2000/svg">
<path fill-rule="evenodd" clip-rule="evenodd" d="M60.9508 0.993692C63.8608 2.1054 65.6009 4.43835 66.167 7.98736C66.5075 10.123 66.5116 28.9862 66.1721 31.4059C65.6815 34.8995 63.8722 37.3692 60.9432 38.5433C58.962 39.3373 54.3056 39.4329 52.3092 38.7205C49.3611 37.6686 47.4247 35.2792 46.8189 31.9459C46.6509 31.0211 46.5855 26.188 46.6407 18.7745C46.7398 5.48091 46.7146 5.66192 48.8039 3.29764C50.8273 1.00819 53.2569 0.138873 57.1456 0.312634C58.6881 0.381517 59.9313 0.603961 60.9508 0.993692ZM13.929 1.41579C15.9814 2.2543 17.1826 3.37248 18.1275 5.32424C18.9624 7.0489 18.9639 7.05822 19.0515 11.6172C19.1528 16.9017 18.8387 18.7051 17.4802 20.6354C15.8295 22.9808 12.7792 24.0099 7.44547 24.0205L4.83638 24.0257V31.5354V39.0452H2.41819H0V19.859V0.673103L6.30002 0.773061C11.9672 0.862919 12.7334 0.9274 13.929 1.41579ZM37.3697 1.41942C39.3528 2.23617 40.345 3.12181 41.153 4.79597C41.8349 6.20832 41.8774 6.5025 41.9589 10.3698C42.0284 13.6655 41.9619 14.721 41.614 15.8467C41.0588 17.6421 39.98 18.9571 38.3901 19.7767L37.1227 20.43L38.4164 21.086C39.1278 21.4467 40.0503 22.1617 40.4662 22.6749C41.8285 24.3566 42.0334 25.4178 42.2508 31.9239C42.3603 35.1997 42.5339 38.1422 42.6365 38.4625C42.8213 39.039 42.7979 39.0452 40.4156 39.0452H38.0081L37.713 38.0441C37.54 37.4557 37.4183 35.2279 37.4183 32.6412C37.4183 27.548 37.1681 25.8441 36.2374 24.6029C35.1472 23.1488 33.9239 22.743 30.6092 22.7366L27.7455 22.7309V30.888V39.0452H25.3273H22.9091V19.8629V0.680871L29.4637 0.771767C35.4613 0.855151 36.1331 0.91005 37.3697 1.41942ZM55.2365 4.25345C53.0202 4.98838 52.1361 5.85562 51.6703 7.75249C51.4863 8.50165 51.4193 12.7703 51.47 20.5491L51.5456 32.2214L52.2446 33.2956C53.0645 34.5556 54.0442 35.1336 55.6957 35.332C58.1058 35.6215 60.4499 34.3433 61.1392 32.3641C61.3955 31.6281 61.4729 28.705 61.4729 19.7528C61.4729 6.91761 61.4566 6.76508 59.937 5.40789C58.7253 4.32544 56.596 3.80261 55.2365 4.25345ZM4.96339 4.89981C4.88907 5.09662 4.85878 8.57753 4.89594 12.6349L4.96365 20.0118H8.0182C11.746 20.0118 12.7752 19.6109 13.6819 17.8055C14.2077 16.7585 14.2546 16.3136 14.2546 12.3726C14.2546 8.43433 14.2072 7.98503 13.6819 6.93056C12.7848 5.13028 11.9308 4.77292 8.22438 4.64733C5.72652 4.56291 5.07132 4.6134 4.96339 4.89981ZM27.8051 11.6581L27.8728 18.7121L30.8001 18.6357C35.5741 18.5109 36.9609 17.4686 37.3037 13.7479C37.5242 11.3549 37.2981 8.27481 36.8178 7.12814C35.9961 5.16576 34.6188 4.60382 30.6308 4.60382H27.7374L27.8051 11.6581ZM44.1337 82.1772H39.4171C39.3469 81.9281 38.9191 79.8409 38.5357 77.9536L37.8385 74.5224H32.447H27.0555L26.6087 76.6588C26.3628 77.834 25.9902 79.5819 25.7804 80.5432L25.3994 82.2911C23.8955 82.2911 22.3916 82.2911 20.8877 82.2911C21.0806 81.6557 29.0183 44.4667 29.0183 44.1992H35.9358C37.7468 50.4177 44.1337 82.1772 44.1337 82.1772ZM66.8927 45.7134L66.8184 47.7203L62.9365 47.7918L59.0547 47.8632V64.9477V82.0322H56.6365H54.2183V64.941V47.8498H50.2729H46.3274V45.7781V43.7064H56.6472H66.967L66.8927 45.7134ZM83.0747 44.092C86.0587 44.7353 87.6558 46.0213 88.7058 48.6266C89.3887 50.3218 89.5539 55.944 88.9868 58.1964C88.4321 60.3991 87.2739 61.9865 85.5794 62.8667L84.2313 63.5667L85.3839 64.0144C86.7325 64.5386 88.3293 66.2539 88.8193 67.7051C89.0336 68.3395 89.2146 70.8374 89.3223 74.6519C89.432 78.5412 89.5979 80.8042 89.7998 81.1735C89.9701 81.4847 90.1093 81.8051 90.1093 81.8856C90.1093 81.9662 89.0252 82.0322 87.7 82.0322C85.4661 82.0322 85.2676 81.9897 84.9711 81.4495C84.7539 81.0536 84.6081 79.0006 84.5164 75.0403C84.3871 69.4709 84.354 69.1651 83.762 68.1132C82.815 66.43 81.5133 65.9027 77.9634 65.7645L75.0911 65.6526V73.8424V82.0322H72.6093H70.1274L70.1878 63.0635C70.2211 52.6306 70.2496 44.0073 70.2514 43.9007C70.2578 43.5272 81.2124 43.6906 83.0747 44.092ZM99.0184 62.8693V82.0322H96.6002H94.1821V62.8693V43.7064H96.6002H99.0184V62.8693ZM118.203 45.4544C118.417 46.4159 119.811 52.9124 121.3 59.8913C122.79 66.8702 124.456 74.6747 125.004 77.2345C125.552 79.7943 126 81.9208 126 81.9605C126 81.9605 121.681 81.9755 121.171 81.9605C121.102 81.7113 120.625 79.5796 120.232 77.6897L119.517 74.2536L114.168 74.3233L108.818 74.3929L108.394 76.2056C108.161 77.2026 107.781 78.9216 107.55 80.0253L107.129 82.0322H104.885H102.641L103.365 78.601C103.764 76.7137 104.728 72.1983 105.507 68.5664C107.764 58.0504 110.218 46.5433 110.52 45.066L110.798 43.7064H114.306H117.814L118.203 45.4544ZM75.0911 54.7717V61.8335H77.5902C83.2669 61.8335 84.5106 60.5664 84.5078 54.7852C84.5063 51.0448 84.2703 49.9926 83.1938 48.9218C82.1815 47.915 80.4735 47.5359 77.3978 47.6353L75.0911 47.7099V54.7717ZM113.781 49.5977C113.78 49.8468 112.806 54.5907 111.617 60.1394C110.428 65.6881 109.455 70.3203 109.455 70.4329C109.455 70.6494 118.445 70.7276 118.656 70.513C118.838 70.3278 114.196 49.1484 113.973 49.1464C113.868 49.1453 113.781 49.3486 113.781 49.5977ZM31.759 51.5399C31.5311 52.7151 30.5356 57.4636 29.5467 62.0924C28.5578 66.7213 27.7481 70.5958 27.747 70.7028C27.7463 70.8097 29.8005 70.897 32.3123 70.897C34.8242 70.897 36.9234 70.8097 36.9777 70.7028C37.1075 70.4467 32.5025 49.4035 32.3167 49.4035C32.2378 49.4035 31.9868 50.3648 31.759 51.5399Z" fill="#282D27"/>
<path fill-rule="evenodd" clip-rule="evenodd" d="M13.929 44.6607C15.9814 45.4992 17.1826 46.6174 18.1275 48.5692C18.9624 50.2938 18.9639 50.3031 19.0515 54.8621C19.1528 60.1466 18.8387 61.95 17.4802 63.8803C15.8295 66.2257 12.7792 67.2548 7.44547 67.2654L4.83638 67.2706V74.7803V82.2901H2.41819H0V63.1039V43.918L6.30002 44.018C11.9672 44.1078 12.7334 44.1723 13.929 44.6607ZM4.96339 48.1447C4.88907 48.3415 4.85878 51.8224 4.89594 55.8798L4.96365 63.2567H8.0182C11.746 63.2567 12.7752 62.8559 13.6819 61.0504C14.2077 60.0034 14.2546 59.5586 14.2546 55.6175C14.2546 51.6792 14.2072 51.23 13.6819 50.1755C12.7848 48.3752 11.9308 48.0178 8.22438 47.8922C5.72652 47.8078 5.07132 47.8583 4.96339 48.1447Z" fill="#282D27"/>
</svg>
